<?xml version="1.0"?>
<svg viewBox="0 0 512 512" xmlns="http://www.w3.org/2000/svg">
    <title />
    <g id="baby">
        <path
            d="M283.4814,164.6279a8.4172,8.4172,0,1,0-8.4169-8.417A8.4262,8.4262,0,0,0,283.4814,164.6279Z" />
        <path
            d="M236.9355,156.2109a8.417,8.417,0,1,0-8.4169,8.417A8.4262,8.4262,0,0,0,236.9355,156.2109Z" />
        <path
            d="M256.748,214.2681c7.1387-.166,13.6592-4.0337,18.3594-10.8911l3.7647-5.4913a7.6887,7.6887,0,0,0-6.3428-12.0351H239.45a7.6885,7.6885,0,0,0-6.1328,12.3257l4.5859,6.0649c4.9014,6.4839,11.4082,10.0322,18.3682,10.0322C256.43,214.2734,256.5889,214.272,256.748,214.2681Zm-12.4638-14.8516-4.208-5.5659h31.8623l-3.43,5.0034-.001,0c-3.206,4.6777-7.4482,7.311-11.9453,7.4155C252.0547,206.3789,247.7041,203.9414,244.2842,199.4165Z" />
        <path
            d="M368.8457,190.8589a25.0008,25.0008,0,0,0-25.9092,24.9839v20.3344a10.3468,10.3468,0,0,1-10.3349,10.3345h-.9971a96.4968,96.4968,0,0,1-31.69-5.4038A86.43,86.43,0,0,0,339.7,189.3013h2.6562a19.6763,19.6763,0,0,0,19.6543-19.6543v-4.5113a19.6763,19.6763,0,0,0-19.6543-19.6543H340.335a86.8252,86.8252,0,0,0-168.6807,0h-2.0107a19.6763,19.6763,0,0,0-19.6543,19.6543v4.5113a19.6763,19.6763,0,0,0,19.6543,19.6543h2.6748a86.6065,86.6065,0,0,0,39.8757,51.77,96.5193,96.5193,0,0,1-31.7986,5.44h-.998a10.3456,10.3456,0,0,1-10.334-10.334V216.3462c0-13.5806-10.8076-25.0142-24.0908-25.4873a25.0008,25.0008,0,0,0-25.9092,24.9839v20.3344a60.4032,60.4032,0,0,0,60.3349,60.3345h4.4375v20.2164a40.5825,40.5825,0,0,0-37.0517,57.7358l6.749,14.4741a40.597,40.597,0,0,0,53.94,19.6333v0A40.3374,40.3374,0,0,0,223.86,394.6163a41.8421,41.8421,0,0,0,10.885,1.4467h42.51a41.8421,41.8421,0,0,0,10.885-1.4467,40.3367,40.3367,0,0,0,16.3865,13.9545v0a40.597,40.597,0,0,0,53.94-19.6333l6.749-14.4741a40.576,40.576,0,0,0-37.0517-57.7354V296.5117h4.4384a60.4022,60.4022,0,0,0,60.334-60.334V216.3462C392.9365,202.7656,382.1289,191.332,368.8457,190.8589Zm-189.5322-6.48a4.0011,4.0011,0,0,0-3.8926-3.0781h-5.7773a11.6678,11.6678,0,0,1-11.6543-11.6543v-4.5113a11.6678,11.6678,0,0,1,11.6543-11.6543h5.2119a4,4,0,0,0,3.9189-3.1987,79.0778,79.0778,0,0,1,71.5635-62.8c1.5614-.1121,3.114-.1606,4.6621-.18v15.0164a4.5552,4.5552,0,1,1-9.11,0V97.0767h-8v5.2426a12.5552,12.5552,0,1,0,25.11,0V87.6138A78.9709,78.9709,0,0,1,333.2109,150.28a4.0007,4.0007,0,0,0,3.92,3.2011h5.2255a11.6678,11.6678,0,0,1,11.6543,11.6543v4.5113a11.6678,11.6678,0,0,1-11.6543,11.6543h-5.7587a4,4,0,0,0-3.8916,3.0747,78.8431,78.8431,0,0,1-153.3926.0034ZM204.0928,401.32a32.626,32.626,0,0,1-43.31-15.7632l-6.749-14.4741a32.59,32.59,0,0,1,59.0732-27.5464l6.749,14.4746A32.6273,32.6273,0,0,1,204.0928,401.32Zm73.1621-13.2573h-42.51a33.6592,33.6592,0,0,1-6.9558-.73,40.487,40.487,0,0,0-.6829-32.7025l-6.749-14.4746a40.485,40.485,0,0,0-24.4148-21.4771h120.116a40.4831,40.4831,0,0,0-24.416,21.4771l-6.749,14.4746a40.487,40.487,0,0,0-.6829,32.7025A33.6592,33.6592,0,0,1,277.2549,388.063Zm81.7988-41.8994a32.38,32.38,0,0,1-1.0879,24.9194l-6.749,14.4741a32.6293,32.6293,0,0,1-43.31,15.7632v.0005a32.628,32.628,0,0,1-15.7636-43.31l6.749-14.4746a32.59,32.59,0,0,1,60.1611,2.627Zm25.8828-109.9859a52.393,52.393,0,0,1-52.334,52.334h-8.4384a4,4,0,0,0-4,4v18.167H191.8359v-18.167a4,4,0,0,0-4-4h-8.4375a52.394,52.394,0,0,1-52.3349-52.3345V215.8428a17,17,0,0,1,17.624-16.9888c9.03.3213,16.376,8.1685,16.376,17.4922v19.8315a18.3548,18.3548,0,0,0,18.334,18.334h.998a105.4925,105.4925,0,0,0,41.4243-8.5839,86.8577,86.8577,0,0,0,34.1841,7.0214q3.11,0,6.2324-.2241a87.3307,87.3307,0,0,0,28.0117-6.7689,105.4724,105.4724,0,0,0,41.3565,8.5555h.9971a18.3551,18.3551,0,0,0,18.3349-18.3345V215.8428a17,17,0,0,1,17.624-16.9888c9.03.3213,16.376,8.1685,16.376,17.4922Z" />
    </g>
</svg>