<?xml version="1.0"?>
<svg height="100%"
    style="fill-rule:evenodd;clip-rule:evenodd;stroke-linejoin:round;stroke-miterlimit:2;"
    version="1.1" viewBox="0 0 32 32" width="100%" xml:space="preserve"
    xmlns="http://www.w3.org/2000/svg" xmlns:serif="http://www.serif.com/"
    xmlns:xlink="http://www.w3.org/1999/xlink"><path d="M16.816,23.395c-1.145,1.573 -2.998,2.608 -5.056,2.608c-3.292,-0 -5.871,-2.671 -5.756,-5.961c0.059,-1.698 0.819,-3.232 1.99,-4.329c0.192,-0.18 0.396,-0.348 0.609,-0.503c0.446,-0.325 0.544,-0.951 0.219,-1.397c-0.325,-0.447 -0.951,-0.545 -1.397,-0.22c-0.279,0.204 -0.546,0.424 -0.798,0.661c-1.546,1.447 -2.544,3.476 -2.622,5.718c-0.155,4.433 3.32,8.031 7.755,8.031c2.714,-0 5.162,-1.356 6.673,-3.431c0.324,-0.446 0.226,-1.072 -0.22,-1.397c-0.447,-0.325 -1.073,-0.226 -1.397,0.22Z"/><path d="M10.246,10l2.801,10.257c0.119,0.435 0.514,0.737 0.965,0.737l5.449,-0c0,-0 3.692,5.532 3.692,5.532c0.167,0.249 0.436,0.411 0.734,0.44c0.298,0.03 0.593,-0.076 0.805,-0.288l3.087,-3.087c0.391,-0.39 0.391,-1.024 0,-1.414c-0.39,-0.39 -1.024,-0.39 -1.414,-0l-2.225,2.225c0,-0 -3.312,-4.964 -3.312,-4.964c-0.186,-0.278 -0.498,-0.444 -0.832,-0.444l-5.221,-0l-1.095,-4.011l2.332,0c0.552,0 1,-0.448 1,-1c-0,-0.552 -0.448,-1 -1,-1l-2.878,0l-0.951,-3.479c0.803,-0.539 1.331,-1.455 1.331,-2.492c-0,-1.656 -1.344,-3 -3,-3c-1.656,-0 -3,1.344 -3,3c-0,1.565 1.201,2.852 2.732,2.988Zm0.268,-3.988c0.552,-0 1,0.448 1,1c-0,0.551 -0.448,1 -1,1c-0.552,-0 -1,-0.449 -1,-1c-0,-0.552 0.448,-1 1,-1Z"/></svg>